<svg xmlns="http://www.w3.org/2000/svg" viewBox="0 0 19 19" width="19" height="19">
	<style>
		tspan { white-space:pre }
		.shp0 { fill: #95a5a5 }
	</style>
	<path id="Shape 6" class="shp0" d="M6.21 18.15C6.02 18.15 5.83 18.07 5.68 17.93C5.44 17.68 5.39 17.3 5.57 17L7.11 14.45C3.27 13.63 0.5 10.91 0.5 7.78C0.5 3.96 4.54 0.85 9.5 0.85C14.46 0.85 18.5 3.96 18.5 7.78C18.5 10.63 16.29 13.14 12.86 14.2L6.61 18.04C6.48 18.11 6.35 18.15 6.21 18.15ZM9.5 2.36C5.37 2.36 2 4.79 2 7.78C2 10.44 4.76 12.74 8.41 13.13C8.67 13.16 8.89 13.31 9.01 13.54C9.12 13.78 9.11 14.05 8.98 14.27L8.45 15.13L12.15 12.86C12.21 12.83 12.27 12.8 12.33 12.78C15.17 11.94 17 9.98 17 7.78C17 4.79 13.63 2.36 9.5 2.36ZM13.98 7.61L6.45 7.61C6.04 7.61 5.7 7.28 5.7 6.88C5.7 6.48 6.04 6.15 6.45 6.15L13.98 6.15C14.4 6.15 14.73 6.48 14.73 6.88C14.73 7.28 14.4 7.61 13.98 7.61ZM11.72 9.89L6.47 9.89C6.05 9.89 5.71 9.56 5.71 9.14C5.71 8.72 6.05 8.39 6.47 8.39L11.72 8.39C12.13 8.39 12.48 8.72 12.48 9.14C12.48 9.56 12.13 9.89 11.72 9.89Z" />
</svg>
