<svg xmlns="http://www.w3.org/2000/svg" viewBox="0 0 20 19" width="20" height="19">
	<style>
		tspan { white-space:pre }
		.shp0 { fill: #9ba3af }
	</style>
	<path id="Shape 14" class="shp0" d="M2.32 18.5L2.32 18.5C1.92 18.5 1.5 18.27 1.25 17.9C1 17.54 0.93 17.12 1.07 16.74C1.25 16.24 3.46 11.79 3.9 10.9L3.96 10.79L13.61 1.1C14.44 0.27 15.95 0.3 16.82 1.17L18.33 2.67C19.22 3.56 19.22 4.86 18.34 5.74L8.66 15.48L8.55 15.53C8.55 15.53 3.35 18.12 2.8 18.39C2.65 18.46 2.49 18.5 2.32 18.5ZM5.02 11.88C4.48 12.96 3.79 14.38 3.22 15.54C2.93 16.13 3.43 16.57 4.01 16.28C5.46 15.56 7.18 14.7 7.63 14.48L17.34 4.72C17.63 4.42 17.63 4.07 17.33 3.77L15.79 2.24C15.48 1.93 14.96 1.9 14.7 2.16L5.02 11.88ZM15.3 8.02C15.11 8.02 14.93 7.94 14.78 7.8L11.74 4.76C11.45 4.48 11.45 4.01 11.74 3.72C12.03 3.43 12.5 3.43 12.78 3.72L15.82 6.76C16.11 7.05 16.11 7.51 15.82 7.8C15.68 7.94 15.49 8.02 15.3 8.02Z" />
</svg>
