<svg xmlns="http://www.w3.org/2000/svg" viewBox="0 0 19 19" width="19" height="19">
	<style>
		tspan { white-space:pre }
		.shp0 { fill: #ffffff }
	</style>
	<path id="Shape 15" class="shp0" d="M0.5 5.19L0.5 7.92C0.88 7.91 7.25 7.97 7.26 7.97C7.68 7.97 7.97 7.67 7.97 7.25L7.97 5.8C7.97 5.6 8.39 5.54 8.65 5.79L11.73 9.01C11.98 9.28 11.96 9.79 11.75 10.01L8.62 13.23C8.36 13.5 7.97 13.38 7.97 13.2L7.97 11.79C7.97 11.37 7.68 11.03 7.26 11.03C7.25 11.03 0.88 11.03 0.5 11.03L0.5 13.82C0.5 16.39 2.6 18.49 5.18 18.49L13.82 18.49C16.4 18.49 18.5 16.39 18.5 13.82L18.5 5.19C18.5 2.61 16.4 0.51 13.82 0.51L5.18 0.51C2.6 0.51 0.5 2.61 0.5 5.19ZM13.86 1.92C15.64 1.92 17.08 3.37 17.08 5.14L17.08 13.91C17.08 15.68 15.64 17.13 13.86 17.13L5.09 17.13C3.31 17.13 1.87 15.68 1.87 13.91L1.87 12.43L6.56 12.43L6.56 13.07C6.56 14.06 7.22 14.77 8.2 14.77C8.79 14.77 9.38 14.52 9.73 14.13L12.75 11.05C13.12 10.64 13.29 10.1 13.29 9.53C13.29 8.96 13.12 8.42 12.72 7.99L9.75 4.92C9.38 4.51 8.78 4.25 8.2 4.25C7.22 4.25 6.53 4.97 6.53 5.96L6.53 6.51L1.87 6.51L1.87 5.14C1.87 3.37 3.31 1.92 5.09 1.92L13.86 1.92Z" />
</svg>
