<svg xmlns="http://www.w3.org/2000/svg" viewBox="0 0 19 19" width="19" height="19">
	<style>
		tspan { white-space:pre }
		.shp0 { fill: #95a5a5 }
	</style>
	<path id="Shape 4" class="shp0" d="M6.84 18.5C6.3 18.5 5.87 18.35 5.59 18.07C5.41 17.89 5.34 17.65 5.38 17.41C5.4 17.28 5.91 14 1.93 10.04C0.12 8.24 -0.2 4.36 2.11 2.06C3.12 1.06 4.54 0.5 6.09 0.5C7.64 0.5 9.14 1.08 10.11 2.04C13.37 5.29 17.13 5.38 17.55 5.38C17.74 5.38 17.98 5.46 18.12 5.59C19.62 7.08 16.64 12.5 14.49 14.64C12.49 16.62 8.78 18.5 6.84 18.5ZM6.09 1.98C4.93 1.98 3.89 2.38 3.16 3.11C1.47 4.79 1.68 7.71 2.98 9C6.52 12.52 6.91 15.69 6.89 17.02C8.31 16.98 11.64 15.38 13.44 13.59C15.51 11.53 17.08 7.97 17.07 6.83C15.69 6.73 12.15 6.16 9.06 3.09C8.36 2.39 7.25 1.98 6.09 1.98ZM12.54 16.04C13.49 16.5 14.73 16.31 15.5 15.54C15.99 15.05 16.26 14.4 16.26 13.71C16.26 13.31 16.17 12.93 16 12.58L12.54 16.04Z" />
</svg>
