<svg xmlns="http://www.w3.org/2000/svg" viewBox="0 0 24 25" width="24" height="25">
	<style>
		tspan { white-space:pre }
		.shp0 { fill: #95a5a5 } 
	</style>
	<path id="Shape 10" class="shp0" d="M12 24.5C5.4 24.5 0.02 19.12 0.02 12.5C0.02 5.88 5.4 0.5 12 0.5C18.6 0.5 23.98 5.88 23.98 12.5C23.98 19.12 18.6 24.5 12 24.5ZM12.02 2.46C6.49 2.46 1.98 6.96 1.98 12.5C1.98 18.04 6.49 22.54 12.02 22.54C17.56 22.54 22.07 18.04 22.07 12.5C22.07 6.96 17.56 2.46 12.02 2.46ZM14.02 12.5C14.02 13.6 13.13 14.5 12.02 14.5C10.92 14.5 10.02 13.6 10.02 12.5C10.02 11.4 10.92 10.5 12.02 10.5C13.13 10.5 14.02 11.4 14.02 12.5ZM18.02 12.5C18.02 13.05 16.46 13.5 14.52 13.5C12.59 13.5 12.02 13.05 12.02 12.5C12.02 11.95 12.59 11.5 14.52 11.5C16.46 11.5 18.02 11.95 18.02 12.5ZM13.02 9C13.02 11.49 12.58 12.5 12.02 12.5C11.47 12.5 11.02 11.49 11.02 9C11.02 6.51 11.47 4.5 12.02 4.5C12.58 4.5 13.02 6.51 13.02 9Z" />
</svg>