<svg xmlns="http://www.w3.org/2000/svg" viewBox="0 0 14 17" width="14" height="17">
	<style>
		tspan { white-space:pre }
		.shp0 { fill: #9ba3af }
	</style>
	<path id="Shape 16" class="shp0" d="M7 11.32C6.73 11.32 6.49 11.15 6.38 10.9L5.42 8.58L2.88 9.31C2.62 9.39 2.33 9.3 2.16 9.08C1.99 8.86 1.98 8.56 2.12 8.33L3.41 6.19L1.26 4.79C1.03 4.64 0.92 4.36 0.97 4.09C1.03 3.81 1.26 3.61 1.53 3.57L4.13 3.19L3.94 0.72C3.92 0.45 4.07 0.19 4.31 0.07C4.55 -0.05 4.85 -0.01 5.05 0.17L7 1.88L8.95 0.17C9.15 -0.01 9.45 -0.05 9.69 0.07C9.93 0.19 10.08 0.45 10.06 0.72L9.87 3.19L12.47 3.57C12.74 3.61 12.96 3.81 13.03 4.09C13.09 4.36 12.97 4.64 12.74 4.79L10.59 6.19L11.88 8.33C12.02 8.56 12.01 8.86 11.84 9.08C11.67 9.3 11.38 9.39 11.12 9.31L8.58 8.58L7.62 10.9C7.51 11.15 7.27 11.32 7 11.32ZM5.8 7.09C6.07 7.09 6.32 7.25 6.42 7.51L7 8.9L7.58 7.51C7.71 7.19 8.05 7.03 8.38 7.12L9.85 7.55L9.11 6.33C8.93 6.02 9.02 5.62 9.32 5.42L10.52 4.64L9.06 4.43C8.71 4.38 8.46 4.06 8.49 3.71L8.6 2.26L7.44 3.28C7.19 3.5 6.81 3.5 6.56 3.28L5.4 2.26L5.51 3.71C5.54 4.06 5.29 4.38 4.94 4.43L3.48 4.64L4.68 5.42C4.98 5.62 5.07 6.02 4.89 6.33L4.15 7.55L5.62 7.12C5.68 7.1 5.74 7.09 5.8 7.09ZM8.9 16C8.76 16 8.63 15.96 8.52 15.88L7.01 14.82L5.59 15.87C5.48 15.95 5.34 16 5.19 16C4.64 16 3.69 15.49 3.69 14.66L3.69 8.2C3.69 7.83 3.93 7.53 4.3 7.53C4.67 7.53 4.97 7.83 4.97 8.2L4.97 14.54C4.99 14.56 5.03 14.58 5.06 14.6L6.6 13.45C6.83 13.28 7.15 13.28 7.38 13.44L9 14.58C9 14.58 9.01 14.58 9.01 14.58L9.01 8.2C9.01 7.83 9.31 7.53 9.68 7.53C10.05 7.53 10.35 7.83 10.35 8.2L10.35 14.66C10.35 15.44 9.48 16 8.9 16Z" />
</svg>
