<svg xmlns="http://www.w3.org/2000/svg" viewBox="0 0 25 25" width="25" height="25">
	<style>
		tspan { white-space:pre }
		.shp0 { fill: #95a5a5 } 
	</style>
	<path id="Shape 9" class="shp0" d="M21 24L3 24C1.34 24 0 22.65 0 21L0 3C0 1.35 1.34 0 3 0L21 0C22.66 0 24 1.35 24 3L24 21C24 22.65 22.66 24 21 24ZM3 2C2.44 2 2 2.45 2 3L2 21C2 21.55 2.44 22 3 22L21 22C21.56 22 22 21.55 22 21L22 3C22 2.45 21.56 2 21 2L3 2ZM13.02 23.58L11.02 23.58L11.02 1.58L13.02 1.58L13.02 23.58ZM23 13L1 13L1 11L23 11L23 13ZM7 9L6 9L6 4L7 4L7 9ZM4 7L4 6L9 6L9 7L4 7ZM15 7L15 6L20 6L20 7L15 7ZM15 18L15 17L20 17L20 18L15 18ZM18 16L17 16L17 15L18 15L18 16ZM18 20L17 20L17 19L18 19L18 20ZM8.65 14.65L9.35 15.35L4.35 20.35L3.65 19.65L8.65 14.65ZM3.65 15.35L4.35 14.65L9.35 19.65L8.65 20.35L3.65 15.35Z" />
</svg>