<svg xmlns="http://www.w3.org/2000/svg" viewBox="0 0 25 25" width="25" height="25">
	<style>
		tspan { white-space:pre }
		.shp0 { fill: #95a5a5 } 
	</style>
	<path id="Shape 13" class="shp0" d="M21.93 0.5L3.07 0.5C1.65 0.5 0.5 1.65 0.5 3.07L0.5 21.93C0.5 23.35 1.65 24.5 3.07 24.5L21.93 24.5C23.35 24.5 24.5 23.35 24.5 21.93L24.5 3.07C24.5 1.65 23.35 0.5 21.93 0.5ZM22.79 21.93C22.79 22.4 22.4 22.79 21.93 22.79L3.07 22.79C2.6 22.79 2.21 22.4 2.21 21.93L2.21 3.07C2.21 2.6 2.6 2.21 3.07 2.21L21.93 2.21C22.4 2.21 22.79 2.6 22.79 3.07L22.79 21.93ZM7.36 14.21C5.47 14.21 3.93 15.75 3.93 17.64C3.93 19.53 5.47 21.07 7.36 21.07C9.25 21.07 10.79 19.53 10.79 17.64C10.79 15.75 9.25 14.21 7.36 14.21ZM7.36 19.36C6.41 19.36 5.64 18.59 5.64 17.64C5.64 16.7 6.41 15.93 7.36 15.93C8.3 15.93 9.07 16.7 9.07 17.64C9.07 18.59 8.3 19.36 7.36 19.36ZM3.93 9.07L3.93 10.79C9.6 10.79 14.21 15.4 14.21 21.07L15.93 21.07C15.93 14.45 10.55 9.07 3.93 9.07ZM3.93 4.79L3.93 6.5C11.96 6.5 18.5 13.04 18.5 21.07L20.21 21.07C20.21 12.09 12.91 4.79 3.93 4.79Z" />
</svg>