<svg xmlns="http://www.w3.org/2000/svg" viewBox="0 0 27 19" width="27" height="19">
	<style>
		tspan { white-space:pre }
		.shp0 { fill: #95a5a5 } 
	</style>
	<path id="Shape 12" class="shp0" d="M17.14 12.87C17.09 12.86 17.03 12.85 16.98 12.84C16.1 13.19 15.15 13.5 14.3 13.68L13.86 14.14L14 15.05C14.02 15.24 14.06 15.43 14.1 15.61C13.8 15.5 13.51 15.38 13.26 15.25L12.55 14.89L11.8 15.15C10.85 15.48 9.85 15.65 8.82 15.65C4.98 15.65 1.86 13.38 1.86 10.58C1.86 7.78 4.98 5.5 8.82 5.5C9.64 5.5 10.42 5.61 11.15 5.8C11.17 5.17 11.29 4.55 11.5 3.97C10.65 3.76 9.76 3.65 8.82 3.65C3.95 3.65 0 6.75 0 10.58C0 14.41 3.95 17.51 8.82 17.51C10.1 17.51 11.32 17.29 12.42 16.9C13.93 17.68 16.13 18.14 17.64 18.14C16.63 17.13 16.03 16.11 15.83 14.77C16.39 14.2 16.83 13.56 17.14 12.87ZM19.5 0.86C15.91 0.86 13 3.15 13 5.97C13 7.13 13.5 8.2 14.33 9.06C14.19 10.04 13.75 10.79 13 11.54C14.12 11.54 15.74 11.2 16.85 10.63C17.66 10.91 18.56 11.08 19.5 11.08C23.09 11.08 26 8.79 26 5.97C26 3.15 23.09 0.86 19.5 0.86ZM19.5 9.22C16.94 9.22 14.86 7.76 14.86 5.97C14.86 4.17 16.94 2.72 19.5 2.72C22.06 2.72 24.14 4.17 24.14 5.97C24.14 7.76 22.06 9.22 19.5 9.22Z" />
</svg>