<svg xmlns="http://www.w3.org/2000/svg" viewBox="0 0 24 23" width="24" height="23">
	<style>
		tspan { white-space:pre }
		.shp0 { fill: #2dcb71 } 
	</style>
	<path id="Shape 8" class="shp0" d="M12 22.89C5.69 22.89 0.56 17.78 0.56 11.5C0.56 5.22 5.69 0.11 12 0.11C18.31 0.11 23.44 5.22 23.44 11.5C23.44 17.78 18.31 22.89 12 22.89ZM12 1.88C6.67 1.88 2.34 6.2 2.34 11.5C2.34 16.8 6.67 21.12 12 21.12C17.32 21.12 21.66 16.8 21.66 11.5C21.66 6.2 17.32 1.88 12 1.88ZM12.03 16.91C9.02 16.91 6.58 14.46 6.58 11.45C6.58 8.44 9.02 6 12.03 6C15.03 6 17.47 8.44 17.47 11.45C17.47 14.46 15.03 16.91 12.03 16.91ZM12.03 6.86C9.48 6.86 7.4 8.94 7.4 11.5C7.4 14.06 9.48 16.15 12.03 16.15C14.58 16.15 16.66 14.06 16.66 11.5C16.66 8.94 14.58 6.86 12.03 6.86ZM11.99 13.88C10.65 13.88 9.56 12.8 9.56 11.48C9.56 10.15 10.65 9.08 11.99 9.08C13.34 9.08 14.43 10.15 14.43 11.48C14.43 12.8 13.34 13.88 11.99 13.88ZM16.01 7.95C15.88 7.95 15.76 7.9 15.66 7.81C15.46 7.62 15.46 7.31 15.66 7.12L18.66 4.18C18.85 3.99 19.17 3.99 19.36 4.18C19.56 4.37 19.56 4.68 19.36 4.87L16.37 7.81C16.27 7.9 16.14 7.95 16.01 7.95ZM5.01 18.95C4.88 18.95 4.75 18.9 4.65 18.8C4.46 18.6 4.46 18.29 4.66 18.09L7.7 15.14C7.9 14.94 8.22 14.95 8.41 15.15C8.6 15.34 8.6 15.66 8.4 15.85L5.36 18.81C5.26 18.91 5.14 18.95 5.01 18.95Z" />
</svg>