<svg xmlns="http://www.w3.org/2000/svg" viewBox="0 0 19 19" width="19" height="19">
	<style>
		tspan { white-space:pre }
		.shp0 { fill: #95a5a5 }
	</style>
	<path id="Shape 5" class="shp0" d="M18.27 18.5L0.61 18.5L0.55 17.82C0.53 17.65 0.2 13.76 2.12 11.65C2.92 10.77 3.98 10.32 5.26 10.32L5.61 10.32L5.84 10.59C6.81 11.76 7.84 12.57 9.5 12.57C11.11 12.57 11.99 11.82 13.02 10.57L13.24 10.29L13.59 10.29C15.11 10.29 16.3 10.81 17.15 11.81C18.99 13.99 18.4 17.71 18.37 17.87L18.27 18.5ZM1.9 17.08L17.01 17.08C17.08 16.03 17.07 13.96 16.04 12.73C15.54 12.12 14.85 11.79 13.94 11.73C12.9 12.96 11.6 14.03 9.43 14.03C7.21 14.03 5.86 12.92 4.85 11.76C4.14 11.82 3.57 12.1 3.12 12.61C2.05 13.82 1.9 15.97 1.9 17.08ZM9.64 10.99C7.01 10.99 5.17 6.91 5.17 4.7C5.17 2.38 7.17 0.5 9.64 0.5C12.1 0.5 14.1 2.38 14.1 4.7C14.1 6.91 12.26 10.99 9.64 10.99ZM9.6 1.85C7.88 1.85 6.48 3.12 6.48 4.68C6.48 6.43 8.09 9.7 9.6 9.7C11.11 9.7 12.71 6.43 12.71 4.68C12.71 3.12 11.32 1.85 9.6 1.85Z" />
</svg>
